<?xml version="1.0" standalone="no"?>
<!DOCTYPE svg PUBLIC "-//W3C//DTD SVG 20010904//EN"
 "http://www.w3.org/TR/2001/REC-SVG-20010904/DTD/svg10.dtd">
<svg version="1.0" xmlns="http://www.w3.org/2000/svg"
 width="1280.000000pt" height="901.000000pt" viewBox="0 0 1280.000000 901.000000"
 preserveAspectRatio="xMidYMid meet">
<g transform="translate(0.000000,901.000000) scale(0.100000,-0.100000)"
fill="#000000" stroke="none">
<path d="M12245 8983 c-49 -7 -182 -27 -295 -44 -1930 -288 -3661 -905 -5210
-1857 -665 -409 -1189 -793 -2245 -1647 -677 -547 -926 -736 -1280 -974 -940
-633 -1827 -964 -3133 -1171 l-73 -12 7 -46 c3 -26 10 -51 14 -55 4 -4 46 -2
94 5 57 8 89 9 96 2 15 -15 30 -107 19 -120 -5 -6 -50 -17 -100 -24 l-91 -13
7 -46 c3 -25 9 -61 12 -79 l6 -34 46 7 c25 4 118 20 206 36 168 30 201 34 208
22 3 -5 125 -552 272 -1217 200 -905 264 -1210 255 -1216 -13 -8 -138 -33
-428 -85 -101 -18 -186 -35 -189 -38 -3 -3 -2 -27 1 -52 8 -52 8 -52 122 -29
72 15 79 15 90 0 16 -22 28 -106 17 -117 -5 -5 -47 -16 -93 -24 -47 -9 -90
-17 -96 -20 -8 -2 -9 -20 -2 -61 5 -32 10 -60 12 -61 5 -6 468 75 671 117
1464 303 2782 863 4040 1718 489 333 860 613 1600 1207 729 586 1033 819 1385
1062 1151 792 2312 1237 3935 1506 149 25 342 55 430 67 221 30 241 34 237 51
-11 43 -52 353 -52 386 0 3 -25 3 -56 1 -43 -2 -59 1 -65 12 -8 15 -319 2394
-319 2442 0 29 2 30 83 43 41 6 42 10 29 95 -6 41 -9 44 -37 45 -32 0 -41 20
-44 95 -1 30 3 37 27 46 25 10 27 14 24 52 -5 48 2 47 -137 25z m-17 -167 c8
-37 9 -63 3 -69 -9 -9 -196 -46 -233 -47 -29 0 -53 125 -25 135 22 9 212 43
227 42 9 -2 19 -24 28 -61z m-379 -24 c5 -10 11 -40 13 -67 l3 -50 -105 -22
c-58 -12 -113 -22 -122 -23 -24 0 -38 30 -41 87 l-2 48 100 21 c126 28 142 28
154 6z m-369 -72 c17 -33 24 -106 10 -115 -7 -4 -60 -18 -119 -30 -80 -18
-109 -20 -117 -12 -17 18 -37 108 -26 119 8 8 193 54 229 57 7 1 17 -8 23 -19z
m-353 -120 c7 -30 11 -60 9 -66 -5 -14 -231 -68 -245 -60 -15 10 -36 115 -25
126 11 11 202 59 229 57 15 -2 22 -14 32 -57z m-367 -72 c6 -24 13 -50 16 -59
2 -9 -1 -21 -8 -26 -20 -15 -225 -66 -237 -59 -6 4 -17 30 -26 58 -12 42 -13
55 -3 65 14 13 187 61 225 62 18 1 24 -7 33 -41z m957 -20 c6 -7 31 -148 56
-313 131 -845 223 -1435 272 -1749 30 -191 55 -361 55 -376 0 -26 -4 -29 -52
-39 -29 -5 -161 -31 -293 -56 -437 -84 -824 -179 -1228 -302 -141 -43 -221
-63 -228 -56 -5 5 -156 527 -334 1159 -179 632 -330 1161 -334 1175 -5 14 -6
31 -2 38 16 25 599 198 1029 305 272 68 863 195 1043 225 4 1 11 -5 16 -11z
m-1331 -39 c13 -21 32 -107 25 -117 -8 -13 -229 -74 -241 -67 -15 9 -43 116
-34 125 9 8 208 68 231 69 6 1 15 -4 19 -10z m-342 -157 c8 -31 12 -59 8 -63
-14 -15 -220 -72 -235 -66 -19 7 -51 107 -38 120 13 13 224 75 237 70 6 -2 19
-30 28 -61z m-360 -100 c10 -28 16 -58 13 -66 -8 -21 -225 -90 -241 -76 -16
12 -40 93 -34 111 4 13 215 89 233 85 6 -1 18 -26 29 -54z m-377 -74 c16 -21
41 -105 34 -115 -7 -10 -204 -83 -226 -83 -19 0 -59 110 -45 124 8 8 201 83
221 85 4 1 11 -5 16 -11z m-350 -130 c5 -7 17 -33 26 -58 14 -35 15 -47 5 -56
-16 -16 -194 -84 -218 -84 -21 0 -68 106 -54 120 10 10 203 88 220 89 6 1 16
-5 21 -11z m-327 -184 c17 -41 20 -58 12 -66 -16 -16 -215 -97 -225 -91 -15 9
-48 85 -45 105 2 16 27 31 103 64 55 24 107 43 116 44 11 0 25 -20 39 -56z
m351 -96 c27 -61 805 -2294 802 -2303 -2 -6 -92 -48 -201 -94 -364 -154 -765
-358 -1093 -556 -77 -47 -146 -85 -153 -85 -7 0 -282 484 -611 1075 -493 886
-596 1077 -586 1089 34 41 692 396 1027 554 325 154 758 340 792 342 7 0 17
-10 23 -22z m-694 -53 c17 -34 24 -58 18 -64 -13 -11 -212 -101 -225 -101 -8
0 -60 100 -60 117 0 8 205 103 223 103 11 0 27 -19 44 -55z m-338 -155 c12
-27 21 -53 21 -57 0 -14 -216 -117 -229 -109 -6 4 -22 29 -36 56 -23 45 -23
49 -7 63 25 23 205 105 219 100 6 -3 21 -26 32 -53z m-335 -170 c28 -51 28
-54 11 -66 -32 -23 -192 -104 -207 -104 -7 0 -26 23 -41 52 -24 42 -26 53 -15
64 20 20 202 114 213 111 6 -2 23 -27 39 -57z m-334 -167 c17 -26 30 -53 30
-59 0 -15 -210 -135 -222 -127 -16 9 -58 83 -58 100 0 12 32 37 98 75 53 31
103 57 110 57 7 1 26 -20 42 -46z m-317 -197 l31 -49 -23 -18 c-13 -11 -61
-42 -108 -70 -95 -58 -98 -57 -141 19 -21 37 -21 40 -4 55 33 29 187 117 201
115 8 -2 28 -25 44 -52z m-320 -192 c15 -24 27 -49 27 -55 0 -11 -192 -139
-208 -139 -14 0 -72 84 -72 103 0 18 198 147 214 141 6 -2 24 -25 39 -50z
m-314 -202 c17 -27 31 -53 31 -58 0 -12 -191 -144 -207 -144 -11 0 -73 90 -73
106 1 11 191 144 206 144 7 0 26 -22 43 -48z m889 -1145 c358 -569 654 -1041
657 -1050 5 -12 -11 -29 -61 -64 -272 -193 -704 -524 -1142 -875 -122 -98
-228 -181 -236 -184 -14 -5 -1571 1915 -1571 1938 0 15 410 345 745 602 414
316 908 666 940 666 12 0 215 -315 668 -1033z m-1198 933 c17 -22 30 -48 28
-57 -3 -16 -181 -153 -199 -153 -12 0 -69 86 -69 103 0 18 167 145 192 146 9
1 31 -17 48 -39z m-301 -222 c17 -23 31 -48 31 -54 0 -15 -177 -154 -195 -154
-17 0 -75 79 -75 99 1 17 174 151 195 151 7 0 27 -19 44 -42z m-291 -234 c27
-37 31 -48 21 -60 -19 -23 -177 -144 -188 -144 -12 0 -81 83 -81 98 0 16 189
162 203 156 6 -3 27 -25 45 -50z m7223 19 c5 -15 9 -45 7 -67 l-3 -41 -119
-18 c-66 -9 -123 -14 -128 -9 -4 4 -11 35 -14 69 l-7 62 34 5 c19 3 57 10 84
15 28 5 69 9 93 10 37 1 44 -2 53 -26z m-376 -35 c12 -31 21 -107 15 -117 -5
-9 -205 -51 -242 -51 -10 0 -28 69 -28 107 0 28 4 33 33 38 217 39 216 39 222
23z m-357 -117 c11 -45 11 -56 0 -66 -7 -7 -62 -22 -123 -34 -99 -19 -111 -20
-121 -6 -17 23 -28 105 -16 117 14 14 169 47 212 45 34 -2 35 -4 48 -56z
m-378 -31 c6 -10 13 -40 16 -64 8 -53 16 -49 -128 -81 -79 -18 -106 -21 -114
-12 -17 18 -37 108 -26 119 9 9 189 55 224 57 10 1 22 -8 28 -19z m-6412 -59
c18 -22 32 -46 32 -55 0 -17 -171 -156 -192 -156 -15 0 -78 77 -78 96 0 16
170 153 191 154 9 0 30 -18 47 -39z m6062 -72 c10 -42 10 -53 -1 -64 -16 -14
-226 -68 -238 -61 -15 10 -35 116 -24 127 18 18 227 67 240 57 6 -5 17 -32 23
-59z m-383 -41 c17 -22 37 -108 27 -117 -9 -9 -213 -71 -232 -71 -13 0 -45 93
-40 117 2 13 32 26 108 49 123 38 125 38 137 22z m-5973 -120 c20 -23 36 -47
36 -54 0 -8 -43 -48 -96 -91 l-97 -77 -39 44 c-22 24 -38 52 -36 62 3 19 164
156 185 157 6 1 28 -18 47 -41z m5632 -32 c9 -30 15 -60 12 -67 -6 -15 -189
-79 -224 -79 -16 0 -24 12 -38 56 -10 33 -14 60 -9 65 11 11 201 77 225 78 12
1 22 -15 34 -53z m-351 -128 c10 -31 17 -60 13 -63 -9 -9 -211 -85 -226 -85
-14 0 -52 80 -52 110 0 13 26 27 108 58 59 23 114 40 122 39 8 -1 24 -27 35
-59z m-5570 -73 c20 -25 34 -52 32 -59 -7 -18 -178 -156 -193 -156 -11 0 -84
87 -84 100 0 8 190 160 200 160 4 0 24 -20 45 -45z m5216 -50 c11 -25 19 -53
17 -62 -3 -17 -186 -103 -218 -103 -19 0 -65 93 -57 114 6 14 192 95 220 96
12 0 25 -15 38 -45z m-340 -152 c10 -25 19 -51 19 -59 0 -13 -197 -114 -221
-114 -16 0 -62 103 -53 118 12 18 215 113 227 105 5 -3 17 -25 28 -50z m-5134
-88 c-4 -12 -185 -155 -197 -155 -16 0 -82 90 -77 104 3 7 47 46 99 86 l93 72
43 -48 c23 -27 41 -53 39 -59z m4798 -75 c14 -27 25 -54 25 -59 0 -14 -209
-123 -225 -117 -8 3 -25 27 -39 55 -23 45 -24 50 -9 63 27 23 187 106 205 107
12 1 27 -17 43 -49z m-3942 -1029 c406 -547 736 -999 733 -1006 -6 -18 -476
-369 -721 -540 -346 -241 -890 -585 -926 -585 -14 0 -1269 2095 -1269 2118 0
5 44 36 98 68 344 205 749 489 1192 838 74 58 140 105 145 103 6 -2 342 -450
748 -996z m-1188 932 c19 -25 34 -51 32 -57 -5 -17 -180 -146 -198 -146 -15 0
-79 79 -79 98 0 10 188 152 202 152 4 0 23 -21 43 -47z m4799 -79 c14 -26 26
-52 26 -58 0 -14 -189 -126 -212 -126 -17 0 -68 78 -68 102 0 15 185 127 212
127 9 1 27 -18 42 -45z m-5096 -147 c18 -26 31 -51 27 -57 -9 -14 -191 -140
-203 -140 -16 0 -74 88 -70 105 4 18 188 147 203 142 5 -2 25 -24 43 -50z
m4775 -42 c15 -25 27 -52 27 -59 0 -13 -188 -136 -208 -136 -17 0 -75 89 -68
105 6 18 185 135 206 135 8 0 27 -20 43 -45z m-5086 -169 c18 -27 30 -52 27
-57 -6 -11 -102 -76 -166 -113 l-46 -27 -31 45 c-17 24 -31 53 -31 63 0 19
185 145 205 140 6 -2 25 -25 42 -51z m4771 -35 c17 -23 32 -48 32 -55 0 -14
-187 -146 -206 -146 -16 0 -77 89 -71 104 7 18 189 146 202 142 6 -1 25 -22
43 -45z m-5088 -158 c16 -27 30 -53 30 -60 0 -11 -199 -133 -218 -133 -13 0
-62 87 -62 109 1 16 181 129 207 130 7 1 26 -20 43 -46z m4784 -60 c19 -26 31
-53 28 -59 -10 -18 -184 -144 -198 -144 -16 0 -74 79 -74 99 1 17 175 151 197
151 7 0 28 -21 47 -47z m-5103 -134 c10 -21 19 -45 19 -53 0 -18 -211 -128
-227 -118 -14 9 -53 87 -53 107 0 9 41 36 108 69 118 59 120 59 153 -5z m4804
-89 c20 -27 34 -54 30 -59 -8 -14 -186 -151 -195 -151 -15 0 -82 91 -77 105 6
15 184 155 197 155 5 0 25 -22 45 -50z m-5141 -79 c21 -39 25 -56 17 -64 -18
-18 -214 -105 -226 -100 -15 5 -56 103 -48 116 8 13 205 106 218 103 6 -1 23
-26 39 -55z m-346 -141 c36 -72 31 -78 -92 -128 -60 -23 -114 -41 -120 -39
-13 5 -49 102 -44 118 4 12 206 98 223 95 6 -1 20 -22 33 -46z m5222 -61 c0
-17 -172 -159 -193 -159 -15 0 -77 77 -77 96 0 11 105 102 170 148 25 17 25
17 62 -26 21 -24 38 -50 38 -59z m-4703 9 c23 -30 1083 -2192 1080 -2202 -11
-28 -655 -310 -987 -434 -383 -142 -956 -320 -974 -302 -13 13 -687 2372 -682
2386 3 7 24 18 48 24 454 116 960 294 1333 469 83 38 155 70 161 70 6 1 16 -5
21 -11z m-863 -85 c27 -78 28 -77 -92 -117 -59 -20 -114 -36 -124 -36 -10 0
-22 16 -32 47 -27 78 -27 78 87 116 138 48 142 47 161 -10z m-353 -125 c14
-47 14 -59 4 -68 -18 -15 -217 -71 -232 -66 -16 6 -48 116 -37 126 12 11 215
69 233 67 9 -1 22 -27 32 -59z m5597 20 c18 -23 32 -47 32 -55 0 -13 -174
-163 -190 -163 -12 0 -80 84 -80 98 0 14 176 162 193 162 7 0 27 -19 45 -42z
m-5959 -115 c7 -28 11 -58 8 -65 -5 -14 -231 -73 -246 -64 -14 9 -34 117 -23
128 12 12 199 57 227 55 15 -2 23 -14 34 -54z m-370 -60 c10 -39 14 -70 12
-89 -1 -17 -238 -61 -251 -48 -6 6 -12 37 -13 70 l-2 59 105 22 c142 29 138
29 149 -14z m6037 -60 c17 -21 33 -43 37 -50 10 -17 -180 -176 -198 -166 -19
11 -75 84 -74 97 0 16 171 155 190 156 9 0 29 -17 45 -37z m-246 -294 c0 -11
-184 -159 -198 -159 -13 0 -82 80 -82 95 0 7 44 47 97 90 l97 78 43 -48 c24
-26 43 -51 43 -56z m-331 -181 c17 -23 31 -48 31 -55 0 -17 -170 -152 -192
-153 -19 0 -80 78 -76 98 4 19 169 150 190 151 9 1 30 -18 47 -41z m-291 -234
c18 -25 32 -49 30 -54 -4 -13 -190 -150 -202 -150 -17 1 -78 90 -73 104 8 19
179 146 197 146 8 -1 30 -21 48 -46z m-300 -222 c17 -26 32 -51 32 -54 0 -8
-199 -148 -210 -148 -11 0 -70 87 -70 103 0 17 176 146 200 147 8 0 30 -21 48
-48z m-308 -212 c17 -27 29 -54 25 -60 -7 -12 -177 -128 -200 -136 -14 -6 -74
78 -75 103 0 14 187 143 206 143 7 0 26 -22 44 -50z m-320 -195 c17 -25 30
-53 28 -62 -3 -18 -183 -133 -208 -133 -8 0 -28 23 -44 51 -24 43 -26 53 -15
65 16 15 191 123 201 124 4 0 21 -20 38 -45z m-317 -198 c16 -26 27 -54 24
-61 -6 -15 -195 -126 -215 -126 -18 0 -66 101 -56 117 11 18 196 123 209 119
5 -1 22 -24 38 -49z m-325 -183 c12 -24 22 -50 22 -57 0 -13 -190 -117 -214
-117 -17 0 -66 77 -66 103 0 18 206 128 226 120 6 -2 20 -24 32 -49z m-335
-169 c15 -31 27 -58 27 -61 0 -10 -222 -112 -234 -108 -15 7 -57 104 -49 117
6 11 201 106 218 107 6 0 23 -25 38 -55z m-336 -161 c14 -31 21 -59 17 -64 -9
-8 -221 -100 -231 -100 -7 0 -54 112 -51 122 4 12 196 96 221 97 13 1 26 -16
44 -55z m-348 -135 c11 -29 21 -57 21 -65 0 -13 -197 -94 -230 -94 -13 0 -23
14 -34 47 -26 75 -26 75 87 120 56 22 109 41 118 42 11 1 24 -17 38 -50z
m-349 -136 c11 -31 19 -61 17 -67 -4 -11 -210 -86 -234 -86 -13 0 -46 92 -41
116 2 11 39 30 108 54 58 21 110 38 117 39 6 1 21 -24 33 -56z m-373 -75 c17
-21 41 -105 34 -115 -9 -14 -229 -86 -241 -78 -13 8 -44 115 -35 123 6 6 210
79 226 81 4 1 11 -5 16 -11z m-333 -166 c14 -49 14 -58 2 -68 -23 -17 -213
-67 -229 -61 -18 7 -50 108 -38 120 12 12 224 75 237 70 6 -2 19 -30 28 -61z
m-364 -84 c6 -24 13 -50 16 -59 7 -25 -12 -34 -129 -64 -78 -21 -111 -25 -119
-17 -17 17 -37 105 -27 117 12 12 184 62 221 64 24 1 29 -4 38 -41z m-369 -69
c6 -12 12 -42 12 -68 l2 -46 -114 -28 c-63 -15 -119 -26 -126 -23 -14 5 -38
117 -28 127 8 8 195 56 225 58 10 1 22 -9 29 -20z m-351 -132 c8 -40 8 -53 -2
-62 -7 -7 -62 -22 -123 -34 -100 -21 -110 -21 -121 -6 -16 21 -28 105 -17 116
15 15 227 57 240 47 6 -5 17 -32 23 -61z"/>
</g>
</svg>
